{"title":"Bloody Reunion (To Sir with Love) 2006 DVDRip Xvid BigPerm LKRG","uid":6770704,"size":994455223,"categoryP":"video","categoryS":"movies","magnet":"?xt=urn:btih:62cb8d02a3723ea222838a304fe8dc0f8aca4da4&amp;dn=Bloody+Reunion+%28To+Sir+with+Love%29+2006+DVDRip+Xvid+BigPerm+LKRG&amp;tr=udp%3A%2F%2Ftracker.openbittorrent.com%3A80&amp;tr=udp%3A%2F%2Fopen.demonii.com%3A1337&amp;tr=udp%3A%2F%2Ftracker.coppersurfer.tk%3A6969&amp;tr=udp%3A%2F%2Fexodus.desync.com%3A6969","seeders":2,"leechers":0,"uploader":".BONE.","files":2,"time":1319565140,"description":"PLOT\n\nA group of former elementary school classmates who decide to visit their ailing teacher at her home in the South Korean\ncountryside watch their plans for an idyllic reunion crumble in this slasher flick from first-time feature director\nDae-wung Lim. It's not that they've changed so much since their last meeting 16 years ago. It's just that they've been\nso good at hiding their pent-up frustrations about the past ÃƒÂ  until now.\n &lt;a href=&quot;\nhttp://www.imdb.com/title/tt0870958/&quot; rel=&quot;nofollow&quot; target=&quot;_NEW&quot;&gt;\nhttp://www.imdb.com/title/tt0870958/&lt;/a&gt;\n\nEncoded By .......: BP-LKRG\nRuntime ..........: 1h 33mn\nFile Size ........: 948 MB\nResolution .......: 704 x 396\nIMDb URL .........: \nGenre ............: Horror,Mystery,Thriller\nLanguage .........: Korean\nSubtitles ........: English\nVideo\nID : 0\nFormat : MPEG-4 Visual\nFormat profile : Advanced Simple@L5\nFormat settings, BVOP : Yes\nFormat settings, QPel : No\nFormat settings, GMC : No warppoints\nFormat settings, Matrix : Default (H.263)\nCodec ID : XVID\nCodec ID/Hint : XviD\nDuration : 1h 33mn\nBit rate : 969 Kbps\nWidth : 704 pixels\nHeight : 396 pixels\nDisplay aspect ratio : 16:9\nFrame rate : 29.970 fps\nColor space : YUV\nChroma subsampling : 4:2:0\nBit depth : 8 bits\nScan type : Progressive\nCompression mode : Lossy\nBits/(Pixel*Frame) : 0.116\nStream size : 646 MiB (68%)\nWriting library : XviD 1.2.1 (UTC 2008-12-04)\nAudio\nID : 1\nFormat : AC-3\nFormat/Info : Audio Coding 3\nMode extension : CM (complete main)\nCodec ID : 2000\nDuration : 1h 33mn\nBit rate mode : Constant\nBit rate : 448 Kbps\nChannel(s) : 6 channels\nChannel positions : Front: L C R, Side: L R, LFE\nSampling rate : 48.0 KHz\nBit depth : 16 bits\nCompression mode : Lossy\nVideo delay : 33ms\nStream size : 299 MiB (31%)\nAlignment : Split accross interleaves\nInterleave, duration : 500 ms (14.98 video frames)\nInterleave, preload duration : 500 ms","torrent":{"xt":"urn:btih:62cb8d02a3723ea222838a304fe8dc0f8aca4da4","amp;dn":"Bloody+Reunion+%28To+Sir+with+Love%29+2006+DVDRip+Xvid+BigPerm+LKRG","amp;tr":["udp%3A%2F%2Ftracker.openbittorrent.com%3A80","udp%3A%2F%2Fopen.demonii.com%3A1337","udp%3A%2F%2Ftracker.coppersurfer.tk%3A6969","udp%3A%2F%2Fexodus.desync.com%3A6969"],"infoHash":"62cb8d02a3723ea222838a304fe8dc0f8aca4da4","infoHashBuffer":{"type":"Buffer","data":[98,203,141,2,163,114,62,162,34,131,138,48,79,232,220,15,138,202,77,164]},"announce":[],"urlList":[]}}